<?xml version="1.0" encoding="utf-8"?>
<!-- Generator: Adobe Illustrator 20.1.0, SVG Export Plug-In . SVG Version: 6.00 Build 0)  -->
<svg version="1.1" id="Calque_1" xmlns="http://www.w3.org/2000/svg" xmlns:xlink="http://www.w3.org/1999/xlink" x="0px" y="0px"
	 viewBox="0 0 88.8 70" style="enable-background:new 0 0 88.8 70;" xml:space="preserve">
<g>
	<path d="M24.5,70c-9.3,0-14.9-5.4-14.9-15.7V21H0v-7.4h9.6V1.2L19.3,0v13.6h13.1l-1,7.4h-12v32.9c0,5.5,1.8,8.2,6.6,8.2
		c2.4,0,4.6-0.7,7.3-2.4l3.7,6.6C33.2,68.8,29.2,70,24.5,70z"/>
	<path d="M88.8,29.2v39.6h-9.6V30.6c0-8.3-3.3-10.7-8.7-10.7c-6.2,0-10.4,3.9-14,9.7v39.1h-9.6V13.6h8.3l0.8,8.2
		c3.8-5.7,9.6-9.4,16.9-9.4C82.9,12.4,88.8,18.7,88.8,29.2z"/>
</g>
</svg>
